<svg version="1.1" id="Layer_1" xmlns="http://www.w3.org/2000/svg" xmlns:xlink="http://www.w3.org/1999/xlink" x="0px" y="0px"
	 width="100%" viewBox="0 0 404 196" enable-background="new 0 0 404 196" xml:space="preserve">
<path fill="#FEFEFE" opacity="1.000000" stroke="none" 
	d="
M244.000000,197.000000 
	C162.700348,197.000000 81.900688,197.000000 1.050517,197.000000 
	C1.050517,131.727600 1.050517,66.455147 1.050517,1.091348 
	C135.549606,1.091348 270.099304,1.091348 404.824493,1.091348 
	C404.824493,66.332962 404.824493,131.666428 404.824493,197.000000 
	C351.455261,197.000000 297.977631,197.000000 244.000000,197.000000 
M46.608372,107.800865 
	C55.265896,106.825996 60.966190,110.712021 64.261169,118.545364 
	C66.772400,124.515450 69.339737,130.462830 71.775017,136.463776 
	C77.523499,150.628983 77.490547,150.556900 92.887032,149.234741 
	C97.107918,148.872299 98.719666,147.342926 97.001602,143.205841 
	C94.644966,137.531097 92.381020,131.816696 89.947334,126.175400 
	C86.099525,117.256142 82.992561,107.832275 74.652069,102.748634 
	C79.163826,98.937744 84.477234,95.939743 87.716698,91.446518 
	C99.534843,75.054436 90.301132,53.276825 69.997604,49.269169 
	C64.022430,48.089752 57.756996,47.944359 51.636101,48.042603 
	C42.596420,48.187691 33.567043,48.974636 24.533279,49.488251 
	C23.960949,58.491543 23.008194,67.490021 22.894115,76.499115 
	C22.643278,96.308533 22.816288,116.123322 22.816288,135.935913 
	C22.816288,150.010803 23.846960,150.816620 38.187984,149.190216 
	C41.886913,148.770706 43.338459,147.370087 43.263012,143.516815 
	C43.054455,132.865555 43.123512,122.205765 43.322094,111.553810 
	C43.345581,110.293961 44.856480,109.061852 46.608372,107.800865 
M243.520523,136.853928 
	C237.317703,135.256210 231.186615,133.215317 224.890152,132.196045 
	C219.508606,131.324860 213.894440,131.953415 208.471451,131.243866 
	C206.367920,130.968643 203.615356,129.244293 202.797058,127.437813 
	C202.045151,125.777924 203.495361,123.120499 203.947647,121.030724 
	C217.012573,124.932724 228.661499,124.616333 238.041443,115.471535 
	C245.471603,108.227661 246.619431,98.952957 242.334717,88.979881 
	C243.772446,88.979881 245.097931,88.837212 246.382568,89.005814 
	C250.775497,89.582352 252.504593,87.287964 252.580322,83.308334 
	C252.618011,81.327477 252.832169,79.131493 252.081360,77.421448 
	C251.451355,75.986542 249.597610,74.231354 248.182510,74.135147 
	C237.415649,73.403114 226.627411,72.893623 215.838089,72.605675 
	C201.277420,72.217087 190.039429,79.821594 187.424438,91.988182 
	C185.683380,100.088547 186.728287,107.865120 192.365402,114.264030 
	C182.832031,126.794373 182.725647,132.949036 191.676651,141.482971 
	C190.960419,142.165161 190.238205,142.836761 189.533691,143.526382 
	C176.768860,156.021606 180.528778,170.803802 197.818054,175.469025 
	C207.931107,178.197876 218.290268,178.415878 228.467606,176.065155 
	C233.228256,174.965561 238.084061,173.082733 242.155792,170.421310 
	C254.062988,162.638412 255.206543,145.175369 243.520523,136.853928 
M377.872498,140.381042 
	C386.417633,132.124390 388.678345,121.539536 388.759491,110.273651 
	C388.883026,93.123802 388.793457,75.972420 388.794006,58.821686 
	C388.794373,47.517048 387.748199,46.579224 376.151306,47.495178 
	C375.653717,47.534477 375.157227,47.668697 374.662872,47.656090 
	C369.882874,47.534187 368.090515,49.533619 368.147461,54.591259 
	C368.372498,74.568008 368.517944,94.559959 367.972870,114.526611 
	C367.529297,130.774521 350.154724,139.480560 336.257629,130.993164 
	C329.601746,126.928215 327.043457,120.615211 326.933899,113.341949 
	C326.670654,95.862488 326.754486,78.377609 326.725769,60.894867 
	C326.703064,47.087330 325.303253,45.895844 311.157227,47.812565 
	C310.662354,47.879616 309.960449,47.735947 309.702637,48.013424 
	C308.418640,49.395420 306.211975,50.876266 306.198822,52.339130 
	C306.008545,73.483505 305.830902,94.636528 306.267395,115.774727 
	C306.516327,127.829407 311.064941,138.190155 321.813629,144.869202 
	C335.374359,153.295578 364.005402,153.557770 377.872498,140.381042 
M118.134583,79.596542 
	C115.051506,83.862282 111.177757,87.768715 109.043365,92.465553 
	C103.973846,103.621269 104.156975,115.435097 107.001366,127.173523 
	C110.170547,140.252319 118.885735,147.508224 131.890305,149.901352 
	C142.070923,151.774811 152.113144,150.801193 162.004822,148.048141 
	C169.905304,145.849243 170.407990,145.068085 170.293320,136.989273 
	C170.205536,130.804550 169.636337,130.832993 163.490448,132.270355 
	C156.282059,133.956192 148.836685,135.659439 141.513290,135.580276 
	C130.649338,135.462845 124.962547,128.050476 125.777489,116.532120 
	C136.511246,116.532120 147.295502,116.573692 158.079315,116.522461 
	C174.603729,116.443954 175.299057,115.681458 173.109375,99.116852 
	C171.583923,87.577118 166.278183,78.460701 154.802048,74.551529 
	C142.180222,70.252098 129.903107,71.162514 118.134583,79.596542 
M265.773468,102.499947 
	C265.773468,113.823425 265.773499,125.146904 265.773468,136.470383 
	C265.773468,150.093231 266.363007,150.522415 280.099243,149.282410 
	C284.059296,148.924911 285.476624,147.439453 285.436981,143.365540 
	C285.252228,124.383827 285.355499,105.399323 285.355652,86.415817 
	C285.355774,73.248184 284.058624,72.132217 270.766083,73.862320 
	C270.600983,73.883804 270.435394,73.906166 270.269348,73.914742 
	C267.028046,74.082275 265.630707,75.614548 265.715912,79.020927 
	C265.903229,86.509727 265.773651,94.006447 265.773468,102.499947 
M286.776794,55.947227 
	C286.819946,54.620079 286.955414,53.288292 286.889099,51.966640 
	C286.682983,47.860043 285.468140,44.144234 280.847412,43.455235 
	C275.653381,42.680759 269.245850,41.139000 266.225281,46.368401 
	C264.233307,49.817059 264.291656,55.579185 265.647034,59.549217 
	C267.381073,64.628403 273.100616,63.351425 277.479980,63.344204 
	C282.005798,63.336746 285.680634,61.873329 286.776794,55.947227 
z"/>
<path fill="#1F1D4D" opacity="1.000000" stroke="none" 
	d="
M46.143127,107.808868 
	C44.856480,109.061852 43.345581,110.293961 43.322094,111.553810 
	C43.123512,122.205765 43.054455,132.865555 43.263012,143.516815 
	C43.338459,147.370087 41.886913,148.770706 38.187984,149.190216 
	C23.846960,150.816620 22.816288,150.010803 22.816288,135.935913 
	C22.816288,116.123322 22.643278,96.308533 22.894115,76.499115 
	C23.008194,67.490021 23.960949,58.491543 24.533279,49.488251 
	C33.567043,48.974636 42.596420,48.187691 51.636101,48.042603 
	C57.756996,47.944359 64.022430,48.089752 69.997604,49.269169 
	C90.301132,53.276825 99.534843,75.054436 87.716698,91.446518 
	C84.477234,95.939743 79.163826,98.937744 74.652069,102.748634 
	C82.992561,107.832275 86.099525,117.256142 89.947334,126.175400 
	C92.381020,131.816696 94.644966,137.531097 97.001602,143.205841 
	C98.719666,147.342926 97.107918,148.872299 92.887032,149.234741 
	C77.490547,150.556900 77.523499,150.628983 71.775017,136.463776 
	C69.339737,130.462830 66.772400,124.515450 64.261169,118.545364 
	C60.966190,110.712021 55.265896,106.825996 46.143127,107.808868 
M65.214012,65.989258 
	C58.158562,62.480915 50.779457,64.103432 43.515358,63.800140 
	C43.515358,73.688599 43.515358,82.756691 43.515358,91.957901 
	C48.608490,91.957901 53.450256,92.369423 58.191330,91.854263 
	C64.185616,91.202934 69.119164,88.260063 70.610733,81.983116 
	C72.017067,76.064896 71.461197,70.349815 65.214012,65.989258 
z"/>
<path fill="#201E4D" opacity="1.000000" stroke="none" 
	d="
M243.840897,137.036194 
	C255.206543,145.175369 254.062988,162.638412 242.155792,170.421310 
	C238.084061,173.082733 233.228256,174.965561 228.467606,176.065155 
	C218.290268,178.415878 207.931107,178.197876 197.818054,175.469025 
	C180.528778,170.803802 176.768860,156.021606 189.533691,143.526382 
	C190.238205,142.836761 190.960419,142.165161 191.676651,141.482971 
	C182.725647,132.949036 182.832031,126.794373 192.365402,114.264030 
	C186.728287,107.865120 185.683380,100.088547 187.424438,91.988182 
	C190.039429,79.821594 201.277420,72.217087 215.838089,72.605675 
	C226.627411,72.893623 237.415649,73.403114 248.182510,74.135147 
	C249.597610,74.231354 251.451355,75.986542 252.081360,77.421448 
	C252.832169,79.131493 252.618011,81.327477 252.580322,83.308334 
	C252.504593,87.287964 250.775497,89.582352 246.382568,89.005814 
	C245.097931,88.837212 243.772446,88.979881 242.334717,88.979881 
	C246.619431,98.952957 245.471603,108.227661 238.041443,115.471535 
	C228.661499,124.616333 217.012573,124.932724 203.947647,121.030724 
	C203.495361,123.120499 202.045151,125.777924 202.797058,127.437813 
	C203.615356,129.244293 206.367920,130.968643 208.471451,131.243866 
	C213.894440,131.953415 219.508606,131.324860 224.890152,132.196045 
	C231.186615,133.215317 237.317703,135.256210 243.840897,137.036194 
M220.853531,163.799973 
	C222.442139,163.333282 224.083527,162.996231 225.609314,162.375168 
	C229.891968,160.631943 232.422760,157.499435 231.899231,152.748459 
	C231.405167,148.264938 227.797272,146.836624 224.033157,146.482361 
	C218.920151,146.001160 213.478210,145.025101 208.713104,146.285995 
	C205.700928,147.083054 202.815765,151.211090 201.418274,154.501190 
	C199.850204,158.192902 202.470993,161.535980 206.255798,162.395569 
	C210.715424,163.408401 215.397263,163.442902 220.853531,163.799973 
M215.525299,109.835129 
	C216.663101,109.621010 217.812668,109.455704 218.936691,109.184479 
	C224.391296,107.868286 227.142242,104.303970 227.319641,98.374039 
	C227.506638,92.122261 224.851669,88.203590 219.392242,86.673470 
	C212.200790,84.657921 205.883087,88.117279 204.283875,94.946297 
	C202.431564,102.856056 206.049316,107.999039 215.525299,109.835129 
z"/>
<path fill="#22204F" opacity="1.000000" stroke="none" 
	d="
M377.615967,140.627151 
	C364.005402,153.557770 335.374359,153.295578 321.813629,144.869202 
	C311.064941,138.190155 306.516327,127.829407 306.267395,115.774727 
	C305.830902,94.636528 306.008545,73.483505 306.198822,52.339130 
	C306.211975,50.876266 308.418640,49.395420 309.702637,48.013424 
	C309.960449,47.735947 310.662354,47.879616 311.157227,47.812565 
	C325.303253,45.895844 326.703064,47.087330 326.725769,60.894867 
	C326.754486,78.377609 326.670654,95.862488 326.933899,113.341949 
	C327.043457,120.615211 329.601746,126.928215 336.257629,130.993164 
	C350.154724,139.480560 367.529297,130.774521 367.972870,114.526611 
	C368.517944,94.559959 368.372498,74.568008 368.147461,54.591259 
	C368.090515,49.533619 369.882874,47.534187 374.662872,47.656090 
	C375.157227,47.668697 375.653717,47.534477 376.151306,47.495178 
	C387.748199,46.579224 388.794373,47.517048 388.794006,58.821686 
	C388.793457,75.972420 388.883026,93.123802 388.759491,110.273651 
	C388.678345,121.539536 386.417633,132.124390 377.615967,140.627151 
z"/>
<path fill="#211F4E" opacity="1.000000" stroke="none" 
	d="
M118.407761,79.364212 
	C129.903107,71.162514 142.180222,70.252098 154.802048,74.551529 
	C166.278183,78.460701 171.583923,87.577118 173.109375,99.116852 
	C175.299057,115.681458 174.603729,116.443954 158.079315,116.522461 
	C147.295502,116.573692 136.511246,116.532120 125.777489,116.532120 
	C124.962547,128.050476 130.649338,135.462845 141.513290,135.580276 
	C148.836685,135.659439 156.282059,133.956192 163.490448,132.270355 
	C169.636337,130.832993 170.205536,130.804550 170.293320,136.989273 
	C170.407990,145.068085 169.905304,145.849243 162.004822,148.048141 
	C152.113144,150.801193 142.070923,151.774811 131.890305,149.901352 
	C118.885735,147.508224 110.170547,140.252319 107.001366,127.173523 
	C104.156975,115.435097 103.973846,103.621269 109.043365,92.465553 
	C111.177757,87.768715 115.051506,83.862282 118.407761,79.364212 
M139.679337,86.126923 
	C130.119141,87.632332 125.983231,92.691559 125.547478,103.627716 
	C135.114304,103.627716 144.671127,103.627716 154.203033,103.627716 
	C155.103958,92.712288 150.669235,87.139717 139.679337,86.126923 
z"/>
<path fill="#1D1B4B" opacity="1.000000" stroke="none" 
	d="
M265.773438,101.999939 
	C265.773651,94.006447 265.903229,86.509727 265.715912,79.020927 
	C265.630707,75.614548 267.028046,74.082275 270.269348,73.914742 
	C270.435394,73.906166 270.600983,73.883804 270.766083,73.862320 
	C284.058624,72.132217 285.355774,73.248184 285.355652,86.415817 
	C285.355499,105.399323 285.252228,124.383827 285.436981,143.365540 
	C285.476624,147.439453 284.059296,148.924911 280.099243,149.282410 
	C266.363007,150.522415 265.773468,150.093231 265.773468,136.470383 
	C265.773499,125.146904 265.773468,113.823425 265.773438,101.999939 
z"/>
<path fill="#22204F" opacity="1.000000" stroke="none" 
	d="
M286.690430,56.348030 
	C285.680634,61.873329 282.005798,63.336746 277.479980,63.344204 
	C273.100616,63.351425 267.381073,64.628403 265.647034,59.549217 
	C264.291656,55.579185 264.233307,49.817059 266.225281,46.368401 
	C269.245850,41.139000 275.653381,42.680759 280.847412,43.455235 
	C285.468140,44.144234 286.682983,47.860043 286.889099,51.966640 
	C286.955414,53.288292 286.819946,54.620079 286.690430,56.348030 
z"/>
<path fill="#FBFBFC" opacity="1.000000" stroke="none" 
	d="
M65.561310,66.163094 
	C71.461197,70.349815 72.017067,76.064896 70.610733,81.983116 
	C69.119164,88.260063 64.185616,91.202934 58.191330,91.854263 
	C53.450256,92.369423 48.608490,91.957901 43.515358,91.957901 
	C43.515358,82.756691 43.515358,73.688599 43.515358,63.800140 
	C50.779457,64.103432 58.158562,62.480915 65.561310,66.163094 
z"/>
<path fill="#FAFAFB" opacity="1.000000" stroke="none" 
	d="
M220.418137,163.850784 
	C215.397263,163.442902 210.715424,163.408401 206.255798,162.395569 
	C202.470993,161.535980 199.850204,158.192902 201.418274,154.501190 
	C202.815765,151.211090 205.700928,147.083054 208.713104,146.285995 
	C213.478210,145.025101 218.920151,146.001160 224.033157,146.482361 
	C227.797272,146.836624 231.405167,148.264938 231.899231,152.748459 
	C232.422760,157.499435 229.891968,160.631943 225.609314,162.375168 
	C224.083527,162.996231 222.442139,163.333282 220.418137,163.850784 
z"/>
<path fill="#FAFAFB" opacity="1.000000" stroke="none" 
	d="
M215.126251,109.813828 
	C206.049316,107.999039 202.431564,102.856056 204.283875,94.946297 
	C205.883087,88.117279 212.200790,84.657921 219.392242,86.673470 
	C224.851669,88.203590 227.506638,92.122261 227.319641,98.374039 
	C227.142242,104.303970 224.391296,107.868286 218.936691,109.184479 
	C217.812668,109.455704 216.663101,109.621010 215.126251,109.813828 
z"/>
<path fill="#F8F8FA" opacity="1.000000" stroke="none" 
	d="
M140.091217,86.111450 
	C150.669235,87.139717 155.103958,92.712288 154.203033,103.627716 
	C144.671127,103.627716 135.114304,103.627716 125.547478,103.627716 
	C125.983231,92.691559 130.119141,87.632332 140.091217,86.111450 
z"/>
</svg>